<svg width="120" height="40" viewBox="0 0 120 40" fill="none" xmlns="http://www.w3.org/2000/svg">
  <path d="M46.5 13H40C39.6 13 39.2 13.3 39.1 13.7L36 29.7C36 30 36.2 30.3 36.5 30.3H39.6C40 30.3 40.4 30 40.5 29.6L41.2 25.7C41.3 25.3 41.7 25 42.1 25H44.1C48.1 25 50.4 23.1 51 19.4C51.3 17.8 51 16.5 50.2 15.6C49.3 14.1 48 13 46.5 13ZM47.1 19.6C46.8 21.8 45.1 21.8 43.5 21.8H42.6L43.3 17.9C43.3 17.7 43.5 17.5 43.8 17.5H44.2C45.3 17.5 46.3 17.5 46.8 18.1C47.1 18.5 47.2 19 47.1 19.6Z" fill="#253B80"/>
  <path d="M66.5 19.5H63.4C63.1 19.5 62.9 19.7 62.9 19.9L62.8 20.4L62.6 20.1C62 19.3 60.8 19 59.6 19C56.8 19 54.4 21.1 53.9 24C53.6 25.4 53.9 26.8 54.7 27.8C55.4 28.7 56.5 29.1 57.8 29.1C60.1 29.1 61.3 27.7 61.3 27.7L61.2 28.2C61.2 28.5 61.4 28.8 61.7 28.8H64.5C64.9 28.8 65.3 28.5 65.4 28.1L67 20C67.1 19.8 66.8 19.5 66.5 19.5ZM62.3 24.1C62 25.6 60.9 26.6 59.4 26.6C58.7 26.6 58.1 26.4 57.7 25.9C57.3 25.5 57.2 24.8 57.3 24.2C57.6 22.7 58.7 21.7 60.2 21.7C60.9 21.7 61.5 21.9 61.9 22.4C62.3 22.8 62.5 23.5 62.3 24.1Z" fill="#253B80"/>
  <path d="M82.5 19.5H79.4C79.1 19.5 78.8 19.6 78.6 19.9L74.6 25.6L73 20.1C72.9 19.7 72.5 19.5 72.2 19.5H69.2C68.8 19.5 68.6 19.9 68.7 20.2L71.8 28.5L68.9 32.6C68.7 32.9 68.9 33.3 69.3 33.3H72.3C72.6 33.3 72.9 33.2 73.1 32.9L83 20.2C83.2 19.9 83 19.5 82.5 19.5Z" fill="#253B80"/>
  <path d="M92.5 13H86C85.6 13 85.2 13.3 85.1 13.7L82 29.7C82 30 82.2 30.3 82.5 30.3H85.8C86.1 30.3 86.3 30.1 86.4 29.9L87.2 25.7C87.3 25.3 87.7 25 88.1 25H90.1C94.1 25 96.4 23.1 97 19.4C97.3 17.8 97 16.5 96.2 15.6C95.3 14.1 94 13 92.5 13ZM93.1 19.6C92.8 21.8 91.1 21.8 89.5 21.8H88.6L89.3 17.9C89.3 17.7 89.5 17.5 89.8 17.5H90.2C91.3 17.5 92.3 17.5 92.8 18.1C93.1 18.5 93.2 19 93.1 19.6Z" fill="#179BD7"/>
  <path d="M112.5 19.5H109.4C109.1 19.5 108.9 19.7 108.9 19.9L108.8 20.4L108.6 20.1C108 19.3 106.8 19 105.6 19C102.8 19 100.4 21.1 99.9 24C99.6 25.4 99.9 26.8 100.7 27.8C101.4 28.7 102.5 29.1 103.8 29.1C106.1 29.1 107.3 27.7 107.3 27.7L107.2 28.2C107.2 28.5 107.4 28.8 107.7 28.8H110.5C110.9 28.8 111.3 28.5 111.4 28.1L113 20C113.1 19.8 112.8 19.5 112.5 19.5ZM108.3 24.1C108 25.6 106.9 26.6 105.4 26.6C104.7 26.6 104.1 26.4 103.7 25.9C103.3 25.5 103.2 24.8 103.3 24.2C103.6 22.7 104.7 21.7 106.2 21.7C106.9 21.7 107.5 21.9 107.9 22.4C108.3 22.8 108.5 23.5 108.3 24.1Z" fill="#179BD7"/>
  <path d="M115.5 14.2L112.3 29.7C112.3 30 112.5 30.3 112.8 30.3H115.5C115.9 30.3 116.3 30 116.4 29.6L119.5 13.6C119.5 13.3 119.3 13 119 13H115.9C115.7 13 115.5 13.2 115.5 14.2Z" fill="#179BD7"/>
</svg>
