<svg width="120" height="40" viewBox="0 0 120 40" fill="none" xmlns="http://www.w3.org/2000/svg">
  <path d="M25 10H35C37.8 10 40 12.2 40 15V25C40 27.8 37.8 30 35 30H25C22.2 30 20 27.8 20 25V15C20 12.2 22.2 10 25 10Z" fill="#4A6CF7"/>
  <path d="M45 15H55C57.8 15 60 17.2 60 20V25C60 27.8 57.8 30 55 30H45C42.2 30 40 27.8 40 25V20C40 17.2 42.2 15 45 15Z" fill="#4A6CF7"/>
  <path d="M65 10H75C77.8 10 80 12.2 80 15V25C80 27.8 77.8 30 75 30H65C62.2 30 60 27.8 60 25V15C60 12.2 62.2 10 65 10Z" fill="#4A6CF7"/>
  <path d="M85 15H95C97.8 15 100 17.2 100 20V25C100 27.8 97.8 30 95 30H85C82.2 30 80 27.8 80 25V20C80 17.2 82.2 15 85 15Z" fill="#4A6CF7"/>
</svg>
